<?xml version="1.0" encoding="UTF-8"?>
<!DOCTYPE svg PUBLIC "-//W3C//DTD SVG 1.1//EN" "http://www.w3.org/Graphics/SVG/1.1/DTD/svg11.dtd">
<!-- Creator: CorelDRAW -->
<svg xmlns="http://www.w3.org/2000/svg" xml:space="preserve" width="10.9802mm" height="10.9803mm" version="1.1" style="shape-rendering:geometricPrecision; text-rendering:geometricPrecision; image-rendering:optimizeQuality; fill-rule:evenodd; clip-rule:evenodd"
viewBox="0 0 6.44 6.44"
 xmlns:xlink="http://www.w3.org/1999/xlink"
 xmlns:xodm="http://www.corel.com/coreldraw/odm/2003">
 <defs>
  <style type="text/css">
   <![CDATA[
    .fil0 {fill:#5B5B5B}
   ]]>
  </style>
 </defs>
 <g id="Слой_x0020_1">
  <metadata id="CorelCorpID_0Corel-Layer"/>
  <path class="fil0" d="M3.22 0c1.78,0 3.22,1.44 3.22,3.22 0,1.78 -1.44,3.22 -3.22,3.22 -1.78,0 -3.22,-1.44 -3.22,-3.22 0,-1.78 1.44,-3.22 3.22,-3.22zm-1.02 1.48c-0.09,0.03 -0.49,0.34 -0.56,0.4 -0.52,0.52 0.31,1.51 0.68,1.95 0.34,0.39 1.17,1.11 1.79,1.13 0.35,0.01 0.47,-0.18 0.61,-0.37 0.12,-0.16 0.37,-0.41 0.14,-0.62 -0.05,-0.05 -0.5,-0.4 -0.56,-0.43 -0.27,-0.11 -0.36,0.29 -0.54,0.37 -0.21,0.09 -0.5,-0.25 -0.61,-0.34 -0.16,-0.13 -0.33,-0.31 -0.46,-0.49 -0.22,-0.29 -0.29,-0.34 0.02,-0.59 0.36,-0.28 0.25,-0.31 -0.2,-0.87 -0.06,-0.07 -0.17,-0.19 -0.31,-0.14z"/>
 </g>
</svg>
