<?xml version="1.0" encoding="UTF-8"?>
<!DOCTYPE svg PUBLIC "-//W3C//DTD SVG 1.1//EN" "http://www.w3.org/Graphics/SVG/1.1/DTD/svg11.dtd">
<!-- Creator: CorelDRAW -->
<svg xmlns="http://www.w3.org/2000/svg" xml:space="preserve" width="15.6561mm" height="11.7892mm" version="1.1" style="shape-rendering:geometricPrecision; text-rendering:geometricPrecision; image-rendering:optimizeQuality; fill-rule:evenodd; clip-rule:evenodd"
viewBox="0 0 13.79 10.39"
 xmlns:xlink="http://www.w3.org/1999/xlink"
 xmlns:xodm="http://www.corel.com/coreldraw/odm/2003">
 <defs>
  <style type="text/css">
   <![CDATA[
    .fil0 {fill:#5B5B5B}
   ]]>
  </style>
 </defs>
 <g id="Слой_x0020_1">
  <metadata id="CorelCorpID_0Corel-Layer"/>
  <g id="_2664901815120">
   <path class="fil0" d="M0.58 0.12c0.06,0.24 1.3,1.32 1.55,1.57l3.9 3.91c1.03,1.03 0.66,1.06 2.49,-0.77l3.12 -3.12c0.15,-0.15 0.26,-0.22 0.42,-0.37 0.2,-0.2 1.1,-1.03 1.15,-1.22 -0.07,-0.04 -0.28,-0.12 -0.37,-0.12l-11.88 0c-0.1,0 -0.3,0.09 -0.37,0.12z"/>
   <path class="fil0" d="M0.65 10.29c0.11,0.06 0.19,0.09 0.34,0.09l11.8 0c0.15,0 0.23,-0.03 0.33,-0.08l-4.48 -4.5c-0.71,0.48 -1.28,1.7 -2.33,1.08 -0.3,-0.18 -0.72,-0.77 -1.17,-1.07l-4.5 4.48z"/>
   <path class="fil0" d="M-0 0.96l0 8.43c0,0.18 0.05,0.23 0.08,0.37 0.21,-0.14 1.35,-1.33 1.69,-1.67 0.1,-0.1 0.17,-0.18 0.27,-0.27 0.12,-0.11 0.19,-0.15 0.31,-0.27 0.21,-0.22 2.13,-2.1 2.25,-2.27 -0.17,-0.26 -0.84,-0.86 -1.11,-1.13l-3.14 -3.14c-0.1,-0.11 -0.17,-0.22 -0.32,-0.26 -0.02,0.09 -0.04,0.1 -0.04,0.21z"/>
   <path class="fil0" d="M9.18 5.28c0.11,0.17 3.54,3.51 3.94,3.92 0.17,0.17 0.41,0.45 0.59,0.57 0.03,-0.15 0.08,-0.2 0.08,-0.37l0 -8.43c0,-0.11 -0.02,-0.11 -0.04,-0.21 -0.16,0.04 -0.46,0.4 -0.59,0.53 -0.2,0.2 -0.36,0.36 -0.56,0.56 -0.31,0.31 -3.29,3.25 -3.42,3.44z"/>
  </g>
 </g>
</svg>
