<?xml version="1.0" encoding="UTF-8"?>
<!DOCTYPE svg PUBLIC "-//W3C//DTD SVG 1.1//EN" "http://www.w3.org/Graphics/SVG/1.1/DTD/svg11.dtd">
<!-- Creator: CorelDRAW -->
<svg xmlns="http://www.w3.org/2000/svg" xml:space="preserve" width="11.7895mm" height="11.7894mm" version="1.1" style="shape-rendering:geometricPrecision; text-rendering:geometricPrecision; image-rendering:optimizeQuality; fill-rule:evenodd; clip-rule:evenodd"
viewBox="0 0 7.54 7.54"
 xmlns:xlink="http://www.w3.org/1999/xlink"
 xmlns:xodm="http://www.corel.com/coreldraw/odm/2003">
 <defs>
  <style type="text/css">
   <![CDATA[
    .fil0 {fill:#5B5B5B}
   ]]>
  </style>
 </defs>
 <g id="Слой_x0020_1">
  <metadata id="CorelCorpID_0Corel-Layer"/>
  <path class="fil0" d="M3.91 0c2,0 3.62,1.62 3.62,3.62 0,2 -1.62,3.62 -3.62,3.62 -0.65,0 -1.26,-0.17 -1.79,-0.47l-1.89 0.68 0 -0.6 0.5 -1.49 0 0c-0.28,-0.52 -0.44,-1.11 -0.44,-1.74 0,-2 1.62,-3.62 3.62,-3.62zm-1.07 1.75c-0.1,0.03 -0.54,0.37 -0.61,0.44 -0.57,0.57 0.34,1.65 0.75,2.12 0.37,0.42 1.28,1.21 1.95,1.23 0.38,0.01 0.51,-0.19 0.66,-0.4 0.13,-0.17 0.4,-0.44 0.15,-0.68 -0.06,-0.06 -0.54,-0.44 -0.61,-0.47 -0.3,-0.12 -0.39,0.32 -0.59,0.41 -0.22,0.1 -0.55,-0.27 -0.67,-0.37 -0.17,-0.15 -0.36,-0.34 -0.51,-0.54 -0.24,-0.32 -0.31,-0.38 0.02,-0.64 0.39,-0.31 0.28,-0.34 -0.22,-0.95 -0.06,-0.08 -0.18,-0.2 -0.34,-0.15zm-2.61 5.71l-0.23 0.08 0.23 -0.69 0 0.6z"/>
 </g>
</svg>
